# xmcd
#
# Track frame offsets: 
#        150
#        13403
#        25037
#        38371
#        50164
#        63415
#        75758
#        89001
#        101090
#        113339
#        127295
#        139139
#        152372
#        163901
#        174544
#        186515
#
# Disc length: 2655 seconds
#
# Revision: 4
# Processed by: cddbd v1.5.2PL0 Copyright (c) Steve Scherf et al.
# Submitted via: ExactAudioCopy v1.0b4
#
DISCID=d20a5d10
DTITLE=Robert Johnson - Cross Road Blues (Disco 2)
DYEAR=1936
DGENRE=Blues
TTITLE0=Preaching Blues
TTITLE1=Walking Blues
TTITLE2=32-20 Blues
TTITLE3=Cross Road Blues
TTITLE4=Come On In My Kitchen
TTITLE5=Last Fair Deal Gone Down
TTITLE6=Kindhearted Woman Blues
TTITLE7=If I Had Possesion Over Judgment Day
TTITLE8=When You Got A Good Friend
TTITLE9=Terraplane Blues
TTITLE10=Me And The Devil Blues
TTITLE11=Rambling On My Mind
TTITLE12=Stones In My Passway
TTITLE13=Milkcow Calf Blues
TTITLE14=Hellhound My Trail
TTITLE15=Traveling Riverside Blues
EXTD=
EXTT0=
EXTT1=
EXTT2=
EXTT3=
EXTT4=
EXTT5=
EXTT6=
EXTT7=
EXTT8=
EXTT9=
EXTT10=
EXTT11=
EXTT12=
EXTT13=
EXTT14=
EXTT15=
PLAYORDER=
